<?xml version="1.0" encoding="utf-8"?>
<!-- Generator: Adobe Illustrator 18.1.0, SVG Export Plug-In . SVG Version: 6.00 Build 0)  -->
<svg version="1.1" id="Layer_1" xmlns="http://www.w3.org/2000/svg" xmlns:xlink="http://www.w3.org/1999/xlink" x="0px" y="0px"
	 viewBox="-201 341 209 111" enable-background="new -201 341 209 111" xml:space="preserve">
<polyline fill="#FFFFFF" points="-199.4,452 -199.4,366.9 7.9,343.3 7.9,452 "/>
<g>
	<path fill="#4C4748" d="M-14.3,359l-9.6,1v47.6l9.6-1.1c6.4-0.7,9-5,9-13.6v-22.4C-5.3,362-7.9,358.2-14.3,359z M-11,394.8
		c0,4-0.9,5.7-3.3,5.9l-3.7,0.4v-35.9l3.7-0.4c2.4-0.3,3.3,1.2,3.3,5.3V394.8z"/>
	<polygon fill="#4C4748" points="-102.5,425.4 -106,425.8 -106,423.6 -106.8,423.7 -106.8,429.3 -106,429.2 -106,426.7 
		-102.5,426.2 -102.5,428.8 -101.7,428.7 -101.7,423.1 -102.5,423.2 	"/>
	<path fill="#4C4748" d="M-95.1,422.2c-1.7,0.2-3.2,1.5-3.2,3.3s1.5,2.8,3.2,2.6c1.7-0.2,3.2-1.5,3.2-3.3
		C-92,422.9-93.4,422-95.1,422.2z M-95.1,427.2c-1.3,0.2-2.3-0.7-2.3-1.8c0-1.2,1-2.2,2.3-2.4s2.3,0.7,2.3,1.8
		C-92.8,426-93.8,427.1-95.1,427.2z"/>
	<polygon fill="#4C4748" points="-89.8,422.5 -87.7,422.2 -87.7,427 -86.9,426.9 -86.9,422.1 -84.8,421.9 -84.8,421.1 -89.8,421.7 	
		"/>
	<polygon fill="#4C4748" points="-81,423.7 -79,423.5 -79,422.7 -81,422.9 -81,421.4 -77.1,420.9 -77.1,420.1 -81.9,420.7 
		-81.9,426.3 -76.9,425.7 -76.9,424.9 -81,425.4 	"/>
	<polygon fill="#4C4748" points="-72.7,419.6 -73.6,419.7 -73.6,425.3 -69.2,424.8 -69.2,424 -72.7,424.4 	"/>
	<path fill="#4C4748" d="M-62.5,420.8c-0.2,0-0.4,0.1-0.5,0.3c-0.2,0.2-0.2,0.4-0.2,0.5c0,0.2,0.1,0.4,0.2,0.5
		c0.1,0.1,0.4,0.1,0.5,0.1c0.2,0,0.4-0.1,0.5-0.3c0.1-0.2,0.2-0.4,0.2-0.5c0-0.2,0-0.4-0.2-0.5C-62.1,420.9-62.3,420.8-62.5,420.8z"
		/>
	<path fill="#4C4748" d="M-53.5,417.3l-2.7,5.9l0.9-0.1l0.9-2l2.6-0.3l0.8,1.7l1-0.1l-2.6-5.3L-53.5,417.3z M-54,420.3l0.9-2.1
		l0.9,1.8L-54,420.3z"/>
	<path fill="#4C4748" d="M-43,419.6c0,0.8-0.4,1.5-1.7,1.6c-1.4,0.2-1.7-0.4-1.7-1.2v-3.5l-0.8,0.1v3.5c0,1.1,0.4,2.2,2.6,1.9
		c2.2-0.3,2.6-1.5,2.6-2.5V416l-0.8,0.1v3.5H-43z"/>
	<path fill="#4C4748" d="M-36.2,417.5l-0.8,0.1c-0.7,0.1-1-0.1-1-0.5c0-0.7,0.9-1,1.7-1.1c1-0.1,1.4,0.2,1.9,0.4l0.5-0.7
		c-0.2-0.1-1.1-0.6-2.4-0.5c-1.1,0.1-2.5,0.8-2.5,2c0,1,0.9,1.3,1.7,1.2l0.9-0.1c0.7-0.1,1.8-0.2,1.8,0.7c0,0.7-1.1,1.1-1.9,1.2
		c-1.4,0.2-2-0.4-2.4-0.6l-0.6,0.6c0.4,0.3,1.1,1,2.9,0.8c1.5-0.2,2.8-0.9,2.8-2.1C-33.5,417.5-34.8,417.3-36.2,417.5z"/>
	<polygon fill="#4C4748" points="-31.1,415.5 -29.1,415.2 -29.1,420 -28.2,419.9 -28.2,415.1 -26.2,414.9 -26.2,414.1 -31.1,414.7 	
		"/>
	<polygon fill="#4C4748" points="-23.2,419.3 -22.3,419.2 -22.3,413.6 -23.2,413.7 	"/>
	<polygon fill="#4C4748" points="-14.3,416.9 -14.3,416.9 -17.8,413.1 -18.6,413.2 -18.6,418.8 -17.8,418.7 -17.8,414.4 
		-17.8,414.4 -14.3,418.3 -13.4,418.2 -13.4,412.5 -14.3,412.6 	"/>
	<path fill="#4C4748" d="M-56,374c0-6.4-4.3-10.4-9.5-9.9c-5.2,0.6-9.5,5.1-9.5,11.6v27.8c0,6.5,4.3,10.4,9.5,9.9
		c5.2-0.6,9.5-5.5,9.5-12V374z M-65.5,407.6c-2.4,0.3-3.7-1.3-3.7-3.5v-29.7c0-2.1,1.3-4.1,3.7-4.4c2.3-0.3,3.7,1.4,3.7,3.5v29.7
		C-61.7,405.4-63.2,407.3-65.5,407.6z"/>
	<path fill="#4C4748" d="M-30.8,398.4V371c0-6.4-4.3-10.4-9.5-9.9c-5.2,0.6-9.5,5.1-9.5,11.6v27.8c0,6.5,4.3,10.4,9.5,9.9
		C-35.1,409.8-30.8,404.9-30.8,398.4z M-40.3,404.5c-2.4,0.3-3.7-1.3-3.7-3.5v-29.7c0-2.1,1.3-4.1,3.7-4.4c2.3-0.3,3.7,1.4,3.7,3.5
		v29.7C-36.5,402.4-37.9,404.3-40.3,404.5z"/>
	<path fill="#4C4748" d="M-121.3,408.7v-37l-2.5,0.3l-3.2,0.4v38.9c0,2.2-1.4,4.1-3.7,4.4c-2.4,0.3-3.7-1.3-3.7-3.5v-39l-5.8,0.7
		v37.7c0,6.5,4.3,10.4,9.5,9.9c1.4-0.2,2.8-0.6,4-1.4v6.7c-0.4,0.1-0.8,0.3-1.2,0.4c0,0,0,0-0.1,0c-7.2,2.6-10.5,7.1-11.8,9.4
		c-2.1,3.9-2.3,8.2-0.4,11.1c1.4,2.1,3.6,3.2,6.2,3.2c0.2,0,0.5,0,0.8,0c9.8-0.8,12-12.1,11.9-17.9v-1.9c0.1,0,0.1,0,0.2,0
		c3.4-0.7,6.4-0.9,6.4-0.9h-0.1c0,0,0,0,0.1,0v-5.6c0,0-2.9,0.3-6.6,1L-121.3,408.7L-121.3,408.7z M-131.6,444.9
		c-0.9,0.4-1.7,0.6-2.2,0.6l0,0c-0.2,0-0.3,0-0.5,0c-0.7-0.1-1.1-0.6-1.3-0.8c-0.3-0.5-0.4-1-0.4-1.3c-0.1-1.1,0.1-2.5,1-4.1
		c0.7-1.2,2.7-4.1,7.3-6.2c0.3-0.1,0.5-0.2,0.8-0.4v0.5C-126.8,433.3-126.6,442.5-131.6,444.9z"/>
	<polygon fill="#4C4748" points="-173.9,377.9 -173.9,398.9 -181.1,399.8 -181.1,378.7 -182.1,378.9 -186.9,379.4 -186.9,427.1 
		-183.4,426.7 -181.1,426.4 -181.1,405.2 -173.9,404.3 -173.9,425.5 -173.5,425.5 -168.2,424.9 -168.2,377.2 -170.5,377.5 	"/>
	<polygon fill="#4C4748" points="-161.2,424 -145.7,422.2 -145.7,416.9 -155.5,418 -155.5,402.1 -148.4,401.3 -148.4,395.9 
		-155.5,396.7 -155.5,381.1 -145.7,379.9 -145.7,374.5 -161.2,376.4 	"/>
	<path fill="#4C4748" d="M-81.8,404.7v-37.8l-5.7,0.7v39c0,2.2-1.4,4.1-3.7,4.4c-2.4,0.3-3.7-1.3-3.7-3.5v-1c0,0,0,0,0-0.1v-37.8
		l-5.8,0.7V407c0,0.2,0,0.3,0,0.5v0.8c0,2.2-1.4,4.1-3.7,4.4c-2.4,0.3-3.7-1.3-3.7-3.5v-38.9l-5.8,0.7v37.7c0,6.5,4.3,10.4,9.5,9.9
		c2.6-0.3,4.9-1.6,6.6-3.7c1.7,1.7,4,2.4,6.6,2.2C-86.1,416.2-81.8,411.3-81.8,404.7z"/>
</g>
<polyline fill="none" stroke="#4C4748" stroke-width="3" stroke-miterlimit="10" points="-199.4,452 -199.4,366.9 6.4,343.3 
	6.4,428.1 "/>
</svg>
