<?xml version="1.0" encoding="utf-8"?>
<!-- Generator: Adobe Illustrator 19.0.0, SVG Export Plug-In . SVG Version: 6.00 Build 0)  -->
<svg version="1.1" id="Layer_1" xmlns="http://www.w3.org/2000/svg" xmlns:xlink="http://www.w3.org/1999/xlink" x="0px" y="0px"
	 viewBox="0 0 143 47" width="143" height="47" style="enable-background:new 0 0 143 47;" xml:space="preserve">
<style type="text/css">
	.st0{opacity:0.3;fill:#4D4749;}
	.st1{fill:#FFFFFF;stroke:#4D4749;stroke-width:2;stroke-miterlimit:10;}
	.st2{fill:#4D4749;}
</style>
<path id="XMLID_252_" class="st0" d="M63.8,31l9.7,16l9.7-16l59.8,0V4H4v27L63.8,31z"/>
<path id="XMLID_221_" class="st1" d="M60.8,28l9.7,16l9.7-16l59.8,0V1H1v27L60.8,28z"/>
<g id="type_logo">
	<path id="XMLID_222_" class="st2" d="M10.9,8.2h1.8v5.5h2.3V8.2h1.8v12.8h-1.8v-5.7h-2.3v5.7h-1.8V8.2z"/>
	<path id="XMLID_224_" class="st2" d="M20.8,8.2h5.4v1.7h-3.6v3.7h3.2v1.7h-3.2v3.7h3.6v1.8h-5.4V8.2z"/>
	<path id="XMLID_226_" class="st2" d="M31.5,15.6L29,8.2h1.9l1.5,5.1h0l1.5-5.1h1.9l-2.5,7.4v5.4h-1.8V15.6z"/>
	<path id="XMLID_228_" class="st2" d="M46.6,20.9h-1.7l-1.4-8.3h0l-1.4,8.3h-1.7L38.5,8.2h1.9l0.9,8.1h0l1.4-8.1h1.4l1.5,8.3h0
		l0.9-8.3h1.9L46.6,20.9z"/>
	<path id="XMLID_230_" class="st2" d="M51.9,11.2c0-2.1,1.6-3.1,3.1-3.1c1.5,0,3.1,1,3.1,3.1v6.7c0,2.1-1.6,3.1-3.1,3.1
		c-1.5,0-3.1-1-3.1-3.1V11.2z M53.7,17.9c0,0.9,0.6,1.3,1.2,1.3c0.7,0,1.2-0.4,1.2-1.3v-6.7c0-0.9-0.6-1.3-1.2-1.3
		c-0.7,0-1.2,0.4-1.2,1.3V17.9z"/>
	<path id="XMLID_233_" class="st2" d="M61.9,11.2c0-2.1,1.6-3.1,3.1-3.1c1.5,0,3.1,1,3.1,3.1v6.7c0,2.1-1.6,3.1-3.1,3.1
		c-1.5,0-3.1-1-3.1-3.1V11.2z M63.7,17.9c0,0.9,0.6,1.3,1.2,1.3c0.7,0,1.2-0.4,1.2-1.3v-6.7c0-0.9-0.6-1.3-1.2-1.3
		c-0.7,0-1.2,0.4-1.2,1.3V17.9z"/>
	<path id="XMLID_236_" class="st2" d="M71.9,8.2h2.7c2.1,0,3.2,1.2,3.2,3.3v6c0,2.4-1.2,3.5-3.4,3.5h-2.5V8.2z M73.8,19.2h0.8
		c1,0,1.4-0.5,1.4-1.6v-6.1c0-1-0.3-1.6-1.4-1.6h-0.8V19.2z"/>
	<path id="XMLID_241_" class="st2" d="M87.5,8.2h1.8v5.5h2.3V8.2h1.8v12.8h-1.8v-5.7h-2.3v5.7h-1.8V8.2z"/>
	<path id="XMLID_243_" class="st2" d="M97.4,11.2c0-2.1,1.6-3.1,3.1-3.1c1.5,0,3.1,1,3.1,3.1v6.7c0,2.1-1.6,3.1-3.1,3.1
		c-1.5,0-3.1-1-3.1-3.1V11.2z M99.2,17.9c0,0.9,0.6,1.3,1.2,1.3c0.7,0,1.2-0.4,1.2-1.3v-6.7c0-0.9-0.6-1.3-1.2-1.3
		c-0.7,0-1.2,0.4-1.2,1.3V17.9z"/>
	<path id="XMLID_246_" class="st2" d="M108.7,9.9h-2.1V8.2h6.1v1.7h-2.1v11h-1.8V9.9z"/>
	<path id="XMLID_248_" class="st2" d="M115.7,8.2h5.5v1.7h-3.6v3.7h3.2v1.7h-3.2v3.7h3.6v1.8h-5.5V8.2z"/>
	<path id="XMLID_250_" class="st2" d="M124.7,8.2h1.8v10.9h3.6v1.8h-5.4V8.2z"/>
</g>
</svg>
